Coordinates
version=1
nRows=22
nColumns=24
inDegrees=yes

Units are S.I. units (second, meters, Newtons, ...)
Angles are in degrees.

endheader
time	pelvis_tilt	pelvis_list	pelvis_rotation	pelvis_tx	pelvis_ty	pelvis_tz	hip_flexion_r	hip_adduction_r	hip_rotation_r	knee_angle_r	ankle_angle_r	subtalar_angle_r	mtp_angle_r	hip_flexion_l	hip_adduction_l	hip_rotation_l	knee_angle_l	ankle_angle_l	subtalar_angle_l	mtp_angle_l	lumbar_extension	lumbar_bending	lumbar_rotation
      2.45000000	     -4.32836477	     -4.22814449	      1.06244781	      0.28518898	      0.99632624	      0.00689598	     -5.89295742	      4.88881824	      2.32176939	     -3.36099739	      8.72405577	      0.00000000	      0.00000000	     21.16040790	     -6.29173274	      3.83198211	      2.10103424	     -2.02317293	      0.00000000	      0.00000000	    -11.54572336	     14.01329700	      0.82900174
      2.46000000	     -4.16005695	     -4.22887149	      1.08957518	      0.28584127	      0.99568109	      0.00535504	     -6.15372995	      4.81132226	      2.17918148	     -4.21913845	      9.11118679	      0.00000000	      0.00000000	     21.53594900	     -6.04121341	      4.34635879	      0.47096542	     -1.34000679	      0.00000000	      0.00000000	    -11.71029693	     13.89593329	      0.90353658
      2.47000000	     -3.99616132	     -4.19453929	      1.07334715	      0.28665183	      0.99508832	      0.00369606	     -6.39148408	      4.67384899	      2.05038992	     -5.12496583	      9.45321141	      0.00000000	      0.00000000	     21.94809513	     -5.73598656	      4.88069263	     -1.44358271	     -0.65324152	      0.00000000	      0.00000000	    -11.85886491	     13.74417920	      1.02224327
      2.48000000	     -3.84302032	     -4.14488248	      0.91428013	      0.28773038	      0.99469250	      0.00205771	     -6.74193686	      4.47878561	      2.21283870	     -5.76883089	      9.37213217	      0.00000000	      0.00000000	     22.01524765	     -5.49660450	      5.47971796	     -2.75876486	     -0.90113266	      0.00000000	      0.00000000	    -12.00711366	     13.55668513	      1.31938356
      2.49000000	     -3.74962576	     -4.18552424	      0.93579732	      0.28871618	      0.99389256	      0.00014586	     -6.66353815	      4.41674751	      1.88047646	     -7.22334246	      9.99920635	      0.00000000	      0.00000000	     22.96102526	     -5.14677750	      5.92440548	     -5.91465432	      0.54007898	      0.00000000	      0.00000000	    -12.04124390	     13.49227390	      1.38756427
      2.50000000	     -3.41016985	     -4.12960480	      0.78410746	      0.29007802	      0.99371436	     -0.00167377	     -6.99628598	      4.21010326	      1.76459069	     -8.35902537	     10.08982954	      0.00000000	      0.00000000	     23.10828033	     -4.84843998	      6.27008899	     -8.04659003	      0.80806072	      0.00000000	      0.00000000	    -12.36948766	     13.29713749	      1.64972079
      2.51000000	     -3.10357239	     -4.13632556	      0.61413276	      0.29157756	      0.99352394	     -0.00348294	     -7.23138091	      4.06557013	      1.68010600	     -9.62495135	     10.07300714	      0.00000000	      0.00000000	     23.26401651	     -4.62993175	      6.59828147	    -10.15224428	      1.00791159	      0.00000000	      0.00000000	    -12.63892532	     13.16738685	      1.93705441
      2.52000000	     -2.85527304	     -4.19998074	      0.40719188	      0.29312298	      0.99329348	     -0.00532129	     -7.28225159	      3.96910809	      1.63024787	    -11.14463255	     10.05130347	      0.00000000	      0.00000000	     23.47032419	     -4.48432255	      6.93985720	    -12.27227566	      1.33990969	      0.00000000	      0.00000000	    -12.85117202	     13.10341753	      2.25001746
      2.53000000	     -2.68705469	     -4.32221419	      0.20698349	      0.29472335	      0.99301743	     -0.00717523	     -7.12739635	      3.93371157	      1.60911022	    -12.90811749	      9.91512732	      0.00000000	      0.00000000	     23.68160309	     -4.41963279	      7.19687981	    -14.20902288	      1.59535207	      0.00000000	      0.00000000	    -12.95354091	     13.10833246	      2.52341414
      2.54000000	     -2.70538098	     -4.46512206	     -0.03059024	      0.29631687	      0.99251113	     -0.00894393	     -6.58561505	      3.92443186	      1.59249567	    -15.04537310	      9.79655985	      0.00000000	      0.00000000	     24.04101216	     -4.40775203	      7.41567671	    -16.04291849	      1.87270567	      0.00000000	      0.00000000	    -12.83806723	     13.13214545	      2.78555593
      2.55000000	     -2.44719784	     -4.61772562	     -0.18553554	      0.29806805	      0.99265772	     -0.01089253	     -6.39757805	      3.90887029	      1.43875505	    -16.96999806	      9.02262110	      0.00000000	      0.00000000	     23.84438873	     -4.42073405	      7.56425344	    -17.29992500	      1.84793266	      0.00000000	      0.00000000	    -13.02016026	     13.20154040	      2.99904823
      2.56000000	     -2.46700689	     -4.68242377	     -0.43928795	      0.29964353	      0.99233083	     -0.01275358	     -5.56013614	      3.79082523	      1.33790149	    -19.60526730	      8.59484793	      0.00000000	      0.00000000	     23.98087735	     -4.36392816	      7.64441928	    -18.70374524	      2.24420314	      0.00000000	      0.00000000	    -12.90370808	     13.16534186	      3.20547277
      2.57000000	     -2.56708392	     -4.75075131	     -0.61423332	      0.30120813	      0.99204143	     -0.01480931	     -4.55485142	      3.66494776	      1.14874443	    -22.30679718	      7.75870068	      0.00000000	      0.00000000	     24.08541517	     -4.28894315	      7.71604827	    -19.82725868	      2.47076464	      0.00000000	      0.00000000	    -12.66870308	     13.17644317	      3.30506402
      2.58000000	     -2.30931132	     -4.88102790	     -0.67331563	      0.30289700	      0.99248360	     -0.01693652	     -4.05268866	      3.59463199	      0.95720911	    -24.62342642	      6.35728758	      0.00000000	      0.00000000	     23.65141274	     -4.26383686	      7.76320319	    -20.62638313	      2.79651082	      0.00000000	      0.00000000	    -12.82528299	     13.26660122	      3.32700314
      2.59000000	     -2.04876226	     -4.99766965	     -0.69861096	      0.30446008	      0.99299599	     -0.01919772	     -3.42479181	      3.50083214	      0.82146187	    -27.10456618	      4.89562294	      0.00000000	      0.00000000	     23.16626087	     -4.20668112	      7.82424535	    -21.33011591	      3.21372765	      0.00000000	      0.00000000	    -12.99145610	     13.36986628	      3.29013969
      2.60000000	     -2.43958159	     -4.55794804	     -0.99441205	      0.30574914	      0.99228229	     -0.02141546	     -1.50630309	      2.70910879	      0.41281883	    -30.74210947	      3.74796693	      0.00000000	      0.00000000	     23.43905155	     -3.63992170	      7.42979315	    -22.31165550	      4.11713044	      0.00000000	      0.00000000	    -12.41864762	     12.85352210	      3.31290736
      2.61000000	     -2.31303862	     -4.46686304	     -1.04499156	      0.30715836	      0.99267035	     -0.02369692	     -0.49010166	      2.31959094	      0.14298871	    -33.49597015	      1.83987175	      0.00000000	      0.00000000	     23.05497137	     -3.38429163	      7.21686008	    -22.99569498	      4.85303642	      0.00000000	      0.00000000	    -12.42677492	     12.73722649	      3.21954389
      2.62000000	     -2.45360288	     -4.15878987	     -1.14260530	      0.30823805	      0.99257888	     -0.02594913	      1.07763488	      1.66992322	     -0.14806873	    -36.72402880	      0.23764378	      0.00000000	      0.00000000	     22.90330842	     -2.92619124	      6.96153367	    -23.55633587	      5.51827205	      0.00000000	      0.00000000	    -12.14997911	     12.38555813	      3.10923879
      2.63000000	     -2.21870770	     -4.02396812	     -1.19315386	      0.30933970	      0.99322769	     -0.02809319	      2.06646567	      1.21139368	     -0.34460897	    -39.43911769	     -1.94380289	      0.00000000	      0.00000000	     22.32521694	     -2.65831341	      6.66957415	    -24.08321249	      6.35254901	      0.00000000	      0.00000000	    -12.32863968	     12.21004497	      3.03281614
      2.64000000	     -2.07352951	     -3.78872519	     -1.26883353	      0.31023250	      0.99374693	     -0.03012948	      3.26059129	      0.64324306	     -0.50771019	    -42.30358008	     -4.05752088	      0.00000000	      0.00000000	     21.78455966	     -2.31038316	      6.34568775	    -24.47008592	      7.09952425	      0.00000000	      0.00000000	    -12.42411473	     11.91663725	      2.97509341
      2.65000000	     -2.02921871	     -3.48492976	     -1.35164223	      0.31090573	      0.99418164	     -0.03198837	      4.59580017	      0.02634855	     -0.60320110	    -45.16014748	     -6.05605666	      0.00000000	      0.00000000	     21.29158108	     -1.91854536	      5.99802629	    -24.69262355	      7.73042390	      0.00000000	      0.00000000	    -12.42903531	     11.53777449	      2.88980685
      2.66000000	     -1.95713563	     -3.25166089	     -1.43932015	      0.31143708	      0.99471106	     -0.03370901	      5.86624869	     -0.47777229	     -0.61485770	    -47.86069244	     -7.98024027	      0.00000000	      0.00000000	     20.74509116	     -1.60679553	      5.71502229	    -24.86120604	      8.31861318	      0.00000000	      0.00000000	    -12.48840866	     11.23243330	      2.82218805
